<svg width="118" height="182" viewBox="0 0 118 182" fill="none" xmlns="http://www.w3.org/2000/svg">
<path d="M22.8857 63.2257C22.8857 63.2257 19.6268 63.0023 19.1209 62.9906C18.6268 62.967 17.4385 63.7078 16.1444 64.6602C14.862 65.6244 13.5443 67.4822 13.5678 67.7644C13.5796 68.0348 13.4737 68.3288 13.909 68.8814C14.3443 69.434 15.0738 69.6457 15.0738 69.6457C15.0738 69.6457 15.2855 70.5746 16.1444 70.798C16.1444 70.798 16.4032 71.6563 17.4267 71.7504C17.4267 71.7504 17.6267 72.6323 18.3679 72.644C18.3679 72.644 18.5209 72.5264 18.7562 72.3971C19.1444 72.1737 19.7562 71.868 20.0738 71.7739C20.5915 71.6328 22.768 69.728 24.7916 67.7526C24.7916 67.7526 27.2975 65.8831 22.8857 63.2257Z" fill="#A77860"/>
<path d="M58.1452 81.4627C58.1452 81.4627 58.6276 68.8579 58.4746 65.3775C58.2393 60.2862 57.3099 55.6888 56.5569 52.6787C56.5569 52.6669 56.5569 52.6669 56.5569 52.6551L56.5452 52.6199C56.3452 51.8321 56.1687 51.1618 56.004 50.6092L51.4627 33.6892C54.651 30.1265 65.2277 27.1164 65.2277 27.1164H72.7337C72.7337 27.1164 85.8752 31.1494 89.0988 32.384C92.3223 33.6186 102.358 58.4049 102.464 59.8041C102.581 61.3092 87.6987 80.428 87.6987 80.428C83.781 80.6984 80.9104 77.6295 80.9104 77.6295C80.9104 77.6295 93.1694 60.3332 92.7577 58.3226C92.4518 56.8175 87.4046 49.7156 87.0634 49.8802C86.734 50.0448 84.4634 62.579 86.7458 81.1923C86.7575 81.1805 77.6515 84.5904 58.1452 81.4627Z" fill="#FA7126"/>
<path d="M109.511 41.7318C109.511 41.7318 113.335 43.0134 114.476 47.846C114.476 47.846 91.5458 59.0281 74.0513 76.6183C74.0043 76.6889 73.9454 76.7359 73.8866 76.7829C73.8749 76.7829 73.8748 76.7947 73.8631 76.7947C73.1101 77.312 71.5454 76.3361 70.3807 74.6312C69.2159 72.9262 68.51 70.5158 69.263 69.9984C69.2865 69.9867 69.3101 69.9632 69.3453 69.9514C70.9101 69.0813 96.5224 54.6658 109.511 41.7318Z" fill="#BDC0CF"/>
<path d="M109.511 41.7318C109.087 42.0963 109.229 42.9899 109.699 44.0011C110.005 44.6478 110.464 45.3415 110.993 45.953C111.37 46.3998 111.782 46.776 112.182 47.0818C113.205 47.8578 114.205 48.14 114.699 47.7167C115.393 47.117 114.864 45.3651 113.511 43.8012C112.146 42.2374 110.205 41.1439 109.511 41.7318Z" fill="#A0A4B0"/>
<path d="M109.817 43.2015C109.64 43.3544 109.617 43.6366 109.699 44.0011C110.005 44.6478 110.464 45.3415 110.993 45.953C111.37 46.3998 111.782 46.776 112.182 47.0818C112.617 47.2934 113.005 47.3169 113.229 47.1288C113.687 46.7408 113.335 45.5885 112.44 44.5537C111.558 43.5308 110.276 42.8018 109.817 43.2015Z" fill="#8B8E99"/>
<path d="M112.77 47.4933C112.77 47.4933 116.44 49.1512 117.087 54.0779C117.087 54.0779 93.1341 62.8965 73.9337 78.6172C73.8749 78.676 73.8161 78.7231 73.7455 78.7701C73.7337 78.7701 73.7337 78.7818 73.722 78.7818C72.9102 79.2169 71.4631 78.0881 70.4749 76.2774C69.4866 74.4548 69.0395 71.9856 69.8395 71.5623C69.8631 71.5506 69.8866 71.5388 69.9219 71.527C71.5925 70.798 98.5342 59.0398 112.77 47.4933Z" fill="#E9EDFF"/>
<path d="M112.77 47.4933C112.311 47.8107 112.358 48.7161 112.734 49.7626C112.97 50.4446 113.358 51.1736 113.817 51.8438C114.146 52.3259 114.523 52.7374 114.887 53.0784C115.829 53.9485 116.793 54.3365 117.323 53.9603C118.076 53.4429 117.723 51.6439 116.534 49.9507C115.346 48.2576 113.523 46.9642 112.77 47.4933Z" fill="#B5B9C7"/>
<path d="M112.935 48.9748C112.746 49.1041 112.687 49.3981 112.735 49.7626C112.97 50.4446 113.358 51.1736 113.817 51.8438C114.146 52.3259 114.523 52.7374 114.888 53.0784C115.299 53.3253 115.688 53.3959 115.935 53.2313C116.429 52.8903 116.193 51.7027 115.417 50.5974C114.629 49.4804 113.429 48.6338 112.935 48.9748Z" fill="#9295A1"/>
<path d="M101.193 40.5089C101.193 40.5089 105.417 41.0851 107.558 45.5297C107.558 45.5297 85.9457 60.2627 71.2278 80.2046C71.1925 80.2751 71.1454 80.3339 71.0866 80.3927L71.0748 80.4045C70.3925 81.0277 68.5806 80.3692 67.0277 78.9229C65.4747 77.4767 64.2747 75.2779 64.957 74.6547C64.9806 74.6312 65.0041 74.6194 65.0276 74.5959C66.4865 73.5024 90.2517 55.1949 101.193 40.5089Z" fill="#CACEDE"/>
<path d="M101.193 40.5089C100.828 40.9322 101.146 41.7671 101.84 42.6489C102.287 43.2251 102.887 43.813 103.57 44.3068C104.052 44.6596 104.546 44.9653 105.028 45.1887C106.24 45.7531 107.334 45.8589 107.77 45.3651C108.37 44.6713 107.476 43.084 105.758 41.8023C104.04 40.5325 101.793 39.8152 101.193 40.5089Z" fill="#B5B9C7"/>
<path d="M101.805 41.8611C101.652 42.0375 101.676 42.3197 101.84 42.6489C102.287 43.2251 102.887 43.813 103.57 44.3068C104.052 44.6596 104.546 44.9653 105.029 45.1887C105.523 45.3063 105.934 45.271 106.134 45.0476C106.534 44.589 105.934 43.5425 104.817 42.7077C103.676 41.8729 102.205 41.4025 101.805 41.8611Z" fill="#9295A1"/>
<path d="M96.793 35.5823C96.793 35.5823 101.052 35.6998 103.664 39.8975C103.664 39.8975 83.7575 56.8411 71.2631 78.241C71.2396 78.3115 71.1925 78.3821 71.1454 78.4408C71.1454 78.4526 71.1337 78.4526 71.1337 78.4644C70.5219 79.1581 68.6513 78.6878 66.9571 77.4179C65.263 76.148 63.8276 74.0903 64.4394 73.3966C64.4629 73.3731 64.4865 73.3496 64.51 73.3378C65.8277 72.0679 87.487 51.3382 96.793 35.5823Z" fill="#DBDFF0"/>
<path d="M96.793 35.5823C96.4753 36.0408 96.8871 36.8404 97.6636 37.6517C98.1695 38.1691 98.8401 38.6982 99.5578 39.1215C100.075 39.4272 100.605 39.6624 101.099 39.8387C102.37 40.2738 103.464 40.262 103.84 39.7211C104.37 38.9686 103.299 37.4753 101.464 36.3936C99.6166 35.3001 97.3106 34.8297 96.793 35.5823Z" fill="#B5B9C7"/>
<path d="M97.546 36.8521C97.4165 37.0403 97.4754 37.3225 97.6636 37.6399C98.1695 38.1573 98.8401 38.6864 99.5578 39.1097C100.075 39.4154 100.605 39.6506 101.099 39.827C101.605 39.8975 102.005 39.8152 102.181 39.5683C102.523 39.0744 101.828 38.0985 100.617 37.3813C99.4048 36.6758 97.8871 36.3701 97.546 36.8521Z" fill="#9295A1"/>
<path d="M0.155823 46.8348C0.155823 46.8348 1.54408 43.0722 6.42654 42.0492C6.42654 42.0492 17.0738 65.1541 34.2859 83.0148C34.3447 83.0618 34.4036 83.1206 34.4506 83.1911C34.4506 83.2029 34.4624 83.2029 34.4624 83.2147C34.9565 83.9789 33.9447 85.5075 32.1918 86.6245C30.4506 87.7416 28.0034 88.3765 27.5093 87.6122C27.4975 87.5887 27.4858 87.5652 27.474 87.5299C26.6269 85.9426 12.8031 60.0863 0.155823 46.8348Z" fill="#DBDFF0"/>
<path d="M0.155821 46.8348C0.508769 47.2581 1.41467 47.1523 2.43822 46.6937C3.09705 46.3998 3.80295 45.9765 4.43825 45.4591C4.89709 45.0946 5.28533 44.6948 5.60298 44.3068C6.403 43.3074 6.72065 42.3197 6.30888 41.8141C5.7324 41.1086 3.95589 41.5907 2.34409 42.8958C0.720535 44.2245 -0.432425 46.1293 0.155821 46.8348Z" fill="#B5B9C7"/>
<path d="M1.62647 46.5644C1.76765 46.7408 2.06177 46.776 2.42648 46.7055C3.08532 46.4115 3.79122 45.9882 4.42653 45.4709C4.88536 45.1064 5.27361 44.7066 5.59126 44.3186C5.8148 43.8835 5.85009 43.5073 5.66185 43.2721C5.28537 42.8135 4.12064 43.131 3.06179 43.9893C2.00294 44.8359 1.24999 46.0941 1.62647 46.5644Z" fill="#9295A1"/>
<path d="M75.228 16.6281C75.228 16.6398 75.228 16.6398 75.228 16.6281C74.8044 18.3565 74.2162 20.0379 73.4868 21.5077C70.9573 26.5872 62.9807 28.3392 60.3806 16.3223C59.8865 14.053 59.7924 12.1364 59.9453 10.5491C60.4865 4.86988 64.1454 3.20022 64.1454 3.20022C66.9572 2.45945 72.075 2.14198 74.4985 5.49306C76.2162 7.87997 76.2515 12.3951 75.228 16.6281Z" fill="#A77860"/>
<path d="M75.2279 16.6281C75.2279 16.6398 75.2279 16.6398 75.2279 16.6281C75.2279 16.6398 74.8396 16.8279 72.7455 14.1588C72.3219 13.6297 72.1808 14.1 72.0043 13.8649L69.4631 13.4298C69.4631 13.4298 70.9925 9.07931 67.7219 8.62074C64.3924 8.16217 59.9335 10.5491 59.9335 10.5491C60.4747 4.86988 64.1336 3.20021 64.1336 3.20021C66.9454 2.45945 72.0631 2.14198 74.4867 5.49306C76.2161 7.87997 76.2514 12.3951 75.2279 16.6281Z" fill="#665249"/>
<path d="M71.1572 12.1599C71.169 11.3251 72.6161 10.3022 73.6514 11.8895C74.6867 13.4769 72.7925 15.7815 72.1219 15.5228C71.4513 15.2641 71.1454 13.5474 71.1572 12.1599Z" fill="#A77860"/>
<path d="M76.2044 11.2663C76.2044 11.2663 67.569 7.59777 59.1217 11.2663C59.1217 11.2663 57.3805 0.178358 67.816 0.00198527C77.628 -0.162629 76.275 9.96117 76.2044 11.2663Z" fill="#FA7126"/>
<path d="M70.8631 9.89063C70.8631 9.89063 63.6277 12.7714 58.6158 12.7479C53.6039 12.7244 59.0393 10.0905 59.0393 10.0905C59.0393 10.0905 62.7806 8.02108 70.8631 9.89063Z" fill="#FA7126"/>
<path d="M91.0047 170.613C91.0047 170.613 91.9812 172.965 92.8165 173.894C93.64 174.823 96.8048 176.492 96.8283 179.267C96.8518 182.266 91.487 181.443 89.3929 181.325C87.2987 181.219 87.1458 179.608 86.2634 177.915C85.381 176.21 84.4986 176.504 84.3222 175.128C84.1575 173.753 84.9928 170.684 84.9928 170.684L91.0047 170.613Z" fill="#163342"/>
<path d="M91.1694 169.955L91.0047 171.495C91.0047 171.495 88.1811 172.553 85.0634 171.495L85.0869 169.555L91.1694 169.955Z" fill="#2F6B8C"/>
<path d="M59.4276 170.613C59.4276 170.613 58.4511 172.965 57.6157 173.894C56.7922 174.823 53.6274 176.492 53.6039 179.267C53.5804 182.266 58.9334 181.443 61.0276 181.325C63.1218 181.219 63.2747 179.608 64.1571 177.915C65.0394 176.21 65.9218 176.504 66.0983 175.128C66.263 173.753 65.4277 170.684 65.4277 170.684L59.4276 170.613Z" fill="#163342"/>
<path d="M59.3335 169.743L59.4982 171.283C59.4982 171.283 62.3218 172.342 65.4395 171.283L65.416 169.343L59.3335 169.743Z" fill="#2F6B8C"/>
<path d="M86.2987 77.7941C85.9458 77.6295 85.5811 77.4884 85.2046 77.3473C76.1221 74.1021 58.6041 77.5355 58.6041 77.5355L58.0276 82.4739C57.4158 87.7533 56.557 95.4902 56.6393 96.3015C56.7688 97.5361 54.8981 127.531 54.8981 131.235C54.8981 134.939 57.7688 169.978 57.7688 169.978C58.1453 171.213 65.1101 171.342 66.3572 170.731C67.5925 170.119 66.2513 135.045 66.4748 131.317C66.6984 127.578 72.3808 99.7702 73.4632 99.8995C74.5456 100.017 78.1692 130.812 79.028 133.646C79.8986 136.479 84.2987 170.554 84.2987 170.554C87.0282 172.154 92.7577 170.554 92.7577 170.554C92.7577 170.554 91.6871 135.174 91.5341 134.139C91.2988 132.599 91.5459 128.437 90.9106 119.195C90.3459 110.929 88.3105 92.9504 87.0164 83.2029L86.2987 77.7941Z" fill="#385369"/>
<path d="M67.0395 166.592L66.6042 170.731C66.6042 170.731 66.2277 171.319 62.1806 171.425C58.1452 171.542 57.4981 170.119 57.4981 170.119L57.3217 166.392C57.3334 166.392 60.8747 168.073 67.0395 166.592Z" fill="#4F7594"/>
<path d="M83.4281 166.839L83.8634 170.978C83.8634 170.978 84.2399 171.566 88.287 171.671C92.3223 171.789 92.9694 170.366 92.9694 170.366L93.1459 166.639C93.1459 166.627 89.6047 168.32 83.4281 166.839Z" fill="#4F7594"/>
<path d="M25.274 68.4111C25.274 68.4111 38.4508 62.144 41.6038 60.1098C43.0391 59.1927 46.4156 56.8293 48.4863 54.1484C49.1686 53.2665 49.8392 52.3377 50.4745 51.4323C53.0158 47.7755 55.004 44.2715 55.004 44.2715C55.004 44.2715 62.5218 35.4999 56.4864 31.5962C56.4864 31.5962 53.5922 31.4081 51.5804 33.5481C49.5686 35.6881 47.9098 39.5565 47.3803 40.6971C46.8509 41.8376 42.1096 47.5991 41.7332 47.8343C41.3449 48.0694 37.6154 53.4547 35.2507 54.5129C32.2977 55.8298 21.1798 62.6966 21.1798 62.6966L25.274 68.4111Z" fill="#FA7126"/>
<path d="M65.1218 27.1516C65.1218 27.1516 63.5453 27.4926 70.1572 33.795C70.1572 33.795 74.8514 28.6332 74.6985 27.7631C74.5456 26.9047 65.1218 27.1516 65.1218 27.1516Z" fill="#A77860"/>
<path d="M74.6985 27.7631C74.6985 27.7631 73.6985 22.2367 73.9573 20.5083C74.2044 18.7798 65.3689 21.6958 65.3689 21.6958C65.3689 21.6958 65.4395 23.3067 65.4042 24.8117C65.3807 25.4702 65.3454 26.1051 65.2748 26.5755C65.2395 26.8224 65.1924 27.0223 65.1336 27.1516C64.6865 28.1276 68.5455 33.2306 74.6985 27.7631Z" fill="#A77860"/>
<path d="M13.8855 67.494C13.8855 67.494 17.2032 65.1423 17.6503 65.6244C18.0973 66.1065 17.9679 66.5533 17.9679 66.5533L19.7797 66.2006C19.7797 66.2006 21.1091 66.6474 20.2385 67.9525C20.2385 67.9525 21.5209 68.2347 20.5327 69.3988C20.5327 69.3988 21.2974 69.9632 20.9327 70.5864C20.568 71.2096 18.3679 72.6323 18.3679 72.6323C18.3679 72.6323 17.7679 72.7264 17.3561 71.7739C17.3561 71.7739 16.3796 71.7387 16.0973 70.8098C16.0973 70.8098 15.3208 70.6569 15.0267 69.6457C15.0267 69.6457 13.309 69.1871 13.5678 67.7409C13.5678 67.7526 13.7561 67.588 13.8855 67.494Z" fill="#A77860"/>
<path d="M19.0032 63.0376C19.0032 63.0376 17.7091 65.5068 17.6032 67.1647C17.5797 67.541 17.6267 67.9055 17.9679 68.0701C18.3091 68.2347 18.9797 67.9525 19.5915 66.906C20.2033 65.8596 21.4739 64.8013 21.4739 64.8013C21.4739 64.8013 21.7915 63.555 19.0032 63.0376Z" fill="#A77860"/>
<path d="M57.0511 54.6305C57.0511 54.6305 61.1335 52.8433 62.7924 45.6472H78.9692C78.9692 45.6472 83.7458 55.336 86.3576 55.8769C86.3576 55.8769 85.687 66.3299 85.9694 70.3865C86.2517 74.4548 86.7694 82.1799 86.7694 82.1799C86.7694 82.1799 86.2988 89.4347 57.8393 84.3552C57.8393 84.3552 58.1688 67.1882 58.1335 66.471C58.1099 65.7537 57.1687 55.0538 57.0511 54.6305Z" fill="#385369"/>
<path d="M62.7924 45.6473C62.7924 45.6473 61.0277 35.9233 56.9335 30.1735C56.9335 30.1735 57.3452 29.6797 58.4276 29.515C58.4276 29.515 62.8395 35.9115 64.5336 45.6355C66.216 55.3713 62.7924 45.6473 62.7924 45.6473Z" fill="#385369"/>
<path d="M78.7809 45.6473C78.7809 45.6473 80.0515 36.4524 84.1457 30.7026C84.1457 30.7026 83.7222 30.2676 82.6398 30.2205C82.6398 30.2205 78.7339 35.9232 77.0397 45.6473C75.3574 55.3713 78.7809 45.6473 78.7809 45.6473Z" fill="#385369"/>
<path d="M67.1219 57.0056H71.8043H76.4867L80.8515 61.3444V74.5724H71.8043H62.7571V61.3444L67.1219 57.0056Z" fill="#446580"/>
<path d="M86.334 55.8769C86.334 55.8769 86.9105 50.0801 87.24 48.8925C87.24 48.8925 82.8634 50.7033 82.5693 51.9731C82.5575 51.9849 84.4634 55.383 86.334 55.8769Z" fill="#FA7126"/>
<path d="M81.3339 86.8715C81.3339 86.8715 82.0751 86.5775 82.3104 86.3071C82.3104 86.3071 82.7104 85.7897 83.0163 85.437C83.1104 85.3311 83.2045 85.2253 83.2634 85.1783C83.534 84.9431 84.2163 84.5081 84.6752 83.7673C85.134 83.0383 86.1693 79.405 86.1693 79.405L84.0398 78.2645L82.2045 76.9476C82.2045 76.9476 77.0632 79.3933 76.5338 80.0282C76.4867 80.087 76.4397 80.1575 76.3926 80.2163C76.0161 80.7925 76.0161 81.3686 75.8514 81.6979C75.7926 81.8154 75.3102 83.0383 75.5573 83.3793C75.8867 83.8614 76.3338 84.0848 76.7573 84.1083C76.7573 84.1083 77.4515 85.0254 78.2397 85.2606C78.2397 85.2606 78.8515 86.1189 79.9221 86.166C79.9456 86.1542 80.6751 86.9773 81.3339 86.8715Z" fill="#A77860"/>
<path d="M102.064 60.7683C102.064 60.7683 88.0987 80.1575 87.0399 81.4862C87.0399 81.4862 82.0751 81.6038 80.5221 77.9352C80.5221 77.9352 85.4281 70.798 85.8399 69.975C85.8399 69.9867 98.899 62.3204 102.064 60.7683Z" fill="#FA7126"/>
<path d="M65.3925 24.8117C65.3925 24.8117 69.2514 27.2574 72.8161 22.6012C72.8161 22.6012 71.122 26.7283 68.4749 26.6343C65.8278 26.5402 65.3925 24.8117 65.3925 24.8117Z" fill="#A77860"/>
</svg>
