<svg width="96" height="175" viewBox="0 0 96 175" fill="none" xmlns="http://www.w3.org/2000/svg">
<path d="M85.9312 54.0878C85.9312 54.0878 88.696 52.8532 89.1195 52.6769C89.543 52.5005 90.8137 52.7592 92.2372 53.1825C93.6608 53.6057 95.402 54.8168 95.4843 55.052C95.5549 55.2989 95.7549 55.5106 95.5432 56.1338C95.3432 56.7569 94.8255 57.1802 94.8255 57.1802C94.8255 57.1802 94.9431 58.0739 94.2725 58.5324C94.2725 58.5324 94.3431 59.379 93.4961 59.7788C93.4961 59.7788 93.5431 60.6019 92.896 60.8488C92.896 60.8488 91.6254 60.5901 91.1313 60.6371C90.6372 60.6724 88.1313 59.72 85.743 58.65C85.743 58.6618 82.9547 57.8269 85.9312 54.0878Z" fill="#EEA886"/>
<path d="M93.4586 48.2997L72.7165 150.44L74.6189 150.826L95.361 48.6856L93.4586 48.2997Z" fill="#8A664D"/>
<path d="M64.4954 144.755L60.7071 163.439C62.8836 170.106 69.3661 172.046 69.3661 172.046C69.3661 172.046 76.0956 172.787 80.6957 167.496L84.484 148.812L64.4954 144.755Z" fill="#4A3F3F"/>
<path d="M74.6603 150.834L72.7544 150.446L75.0368 139.194L76.9427 139.57L74.6603 150.834Z" fill="#C9C3C3"/>
<path d="M64.4954 144.755L60.7071 163.439C62.8836 170.106 69.3661 172.046 69.3661 172.046C69.3661 172.046 76.0956 172.787 80.6957 167.495L84.484 148.812L64.4954 144.755Z" fill="#C9C3C3"/>
<path d="M89.896 55.7692C89.896 55.7692 88.8607 56.8863 88.4136 57.0509C87.9665 57.2155 89.6842 60.1903 89.6842 60.1903C89.6842 60.1903 91.2136 57.0626 89.896 55.7692Z" fill="#CF8C6C"/>
<path d="M84.7077 55.828C84.7077 55.828 85.9665 55.1578 86.6253 54.4523C87.2842 53.7586 88.2136 59.2379 88.2136 59.2379C88.2136 59.2379 85.9194 59.0733 84.19 58.9322C82.8253 58.8263 84.7077 55.828 84.7077 55.828Z" fill="#EEA886"/>
<path d="M64.072 55.3459C66.8955 56.2043 84.6724 59.5671 84.6724 59.5671L86.4606 53.5822C86.4606 53.5822 77.3899 52.0419 74.4133 51.0542C72.1309 50.3017 68.2367 49.2905 67.8838 49.0671C67.5308 48.8436 59.413 39.8134 58.9189 38.7551C58.4365 37.6969 56.7306 33.8284 54.8718 31.8413C53.0129 29.8542 50.507 30.301 50.507 30.301C44.9304 33.9343 51.5305 42.847 51.5305 42.847C51.5305 42.847 53.7306 45.3397 56.0836 48.7261C56.0836 48.7261 60.3189 54.2054 64.072 55.3459Z" fill="#385369"/>
<path d="M95.1196 54.9226C95.1196 54.9226 91.4725 53.9467 91.2489 54.5111C91.0136 55.0755 91.2725 55.4282 91.2725 55.4282L89.5901 55.6987C89.5901 55.6987 88.5783 56.51 89.7548 57.3683C89.7548 57.3683 88.7312 58.0268 89.9665 58.7205C89.9665 58.7205 89.4842 59.4613 90.0018 59.8846C90.5195 60.3079 92.8843 60.837 92.8843 60.837C92.8843 60.837 93.4372 60.7194 93.4843 59.767C93.4843 59.767 94.3196 59.426 94.2608 58.5206C94.2608 58.5206 94.8843 58.1444 94.8137 57.1685C94.8137 57.1685 96.1549 56.216 95.4608 55.0402C95.4843 55.052 95.2726 54.9697 95.1196 54.9226Z" fill="#DB9C7C"/>
<path d="M15.8121 164.497C15.8121 164.497 14.8827 166.731 14.0944 167.625C13.3062 168.507 10.3061 170.094 10.2943 172.728C10.2826 175.585 15.3533 174.797 17.3298 174.692C19.318 174.586 19.4592 173.057 20.2945 171.446C21.1298 169.824 21.9769 170.106 22.1299 168.801C22.2828 167.496 21.4946 164.579 21.4946 164.579L15.8121 164.497Z" fill="#163342"/>
<path d="M52.0599 164.497C52.0599 164.497 52.9893 166.731 53.7776 167.625C54.5658 168.507 57.5659 170.094 57.5776 172.728C57.5894 175.585 52.5187 174.797 50.5422 174.692C48.5539 174.586 48.4127 173.057 47.5774 171.446C46.7421 169.824 45.895 170.106 45.7421 168.801C45.5892 167.496 46.3774 164.579 46.3774 164.579L52.0599 164.497Z" fill="#163342"/>
<path d="M50.8481 127.612C50.8481 131.139 53.9188 163.298 53.9188 163.298C53.5658 164.474 46.0363 164.333 44.8598 163.745C43.6833 163.157 40.2714 131.28 40.0479 127.729C39.8361 124.178 33.9066 94.9593 32.8713 95.0769C31.836 95.1944 27.9771 126.624 27.1535 129.328C26.33 132.033 22.6005 164.05 22.6005 164.05C20.0122 165.579 13.8709 163.662 13.8709 163.662C13.8709 163.662 15.1533 130.786 15.3062 129.799C15.5298 128.329 15.2945 124.366 15.8945 115.583C16.4239 107.729 18.3651 90.6088 19.5887 81.3433C19.6004 81.2963 20.071 77.7336 20.2828 76.205C26.7535 73.2302 40.0714 74.6882 46.5186 75.9698C46.5069 75.8405 46.9892 79.9441 47.0716 80.6613C47.6481 85.6821 48.4716 93.0427 48.3893 93.807C48.2716 94.9828 50.8481 124.084 50.8481 127.612Z" fill="#FA7126"/>
<path d="M43.648 160.335L44.1304 164.885C44.1304 164.885 44.5421 165.532 48.9658 165.649C53.3894 165.779 54.0953 164.203 54.0953 164.203L54.2835 160.1C54.2953 160.111 50.4129 161.969 43.648 160.335Z" fill="#DB6321"/>
<path d="M23.3769 160.499L22.9299 164.756C22.9299 164.756 22.5416 165.356 18.4004 165.473C14.2591 165.591 13.6003 164.121 13.6003 164.121L13.4238 160.288C13.412 160.288 17.0474 162.028 23.3769 160.499Z" fill="#DB6321"/>
<path d="M13.7062 72.36C13.7062 72.36 0.0353295 55.2284 3.46331e-05 51.7479C-0.0117303 50.1371 2.97657 45.8453 4.95308 43.3291C7.48254 40.0956 10.9414 36.5563 12.5179 35.0395C12.5179 35.0395 19.624 26.5972 24.6241 31.1946C24.6241 31.1946 24.4829 34.287 22.977 36.6269C21.4711 38.9668 19.5651 40.754 18.6357 41.5065C17.7063 42.2591 9.38846 50.9954 9.25905 51.4069C9.12963 51.8185 11.0591 56.7216 12.2944 58.8381C14.0474 61.86 17.6592 68.8914 17.6592 68.8914L13.7062 72.36Z" fill="#385369"/>
<path d="M40.7774 25.6565C40.7774 25.6565 42.2715 25.9857 35.9537 31.9119C35.9537 31.9119 31.5772 27.0557 31.7301 26.2327C31.8831 25.4096 40.7774 25.6565 40.7774 25.6565Z" fill="#EEA987"/>
<path d="M54.0599 31.1358L49.1539 47.997C49.001 48.5144 48.8127 49.1493 48.6245 49.9019L48.6127 49.9254C48.6127 49.9371 48.6127 49.9371 48.6127 49.9489C47.8716 52.8061 46.9421 57.1449 46.6715 61.9775C46.4833 65.2698 46.6598 75.7463 46.6598 75.7463C46.6598 75.7463 40.4714 78.0157 30.3653 77.3807C30.3653 77.3807 19.3769 80.1321 20.2592 73.477C22.6005 55.8515 20.3063 48.5732 20.0004 46.8095C20.0004 46.8095 19.6475 37.5675 18.5886 30.395C21.6475 29.2545 33.5889 25.5507 33.5889 25.5507L40.6714 25.633C40.6714 25.6212 50.001 28.0787 54.0599 31.1358Z" fill="#385369"/>
<path d="M48.2716 51.3364C48.2716 51.3364 44.0597 49.3728 42.6009 42.7176L27.7418 42.553C27.7418 42.553 23.2946 51.3834 20.8946 51.8655C20.8946 51.8655 21.3652 61.566 21.0593 65.3169C20.7652 69.0678 19.8593 76.1462 19.8593 76.1462C19.8593 76.1462 20.624 82.9424 46.8245 78.5331C46.8245 78.5331 46.8363 63.1299 46.8833 62.4714C46.9186 61.813 48.1657 51.7244 48.2716 51.3364Z" fill="#FA7126"/>
<path d="M42.5774 42.7176C42.5774 42.7176 44.5303 33.4287 48.354 28.1728C48.354 28.1728 47.9187 27.7847 46.9304 27.6201C46.9304 27.6201 42.6479 33.7461 40.9891 42.7059C39.3302 51.6539 42.5774 42.7176 42.5774 42.7176Z" fill="#FA7126"/>
<path d="M27.883 42.5648C27.883 42.5648 26.7418 34.2283 23.0358 28.89C23.0358 28.89 23.6358 28.5138 24.6241 28.3727C24.6241 28.3727 28.0124 33.5933 29.4712 42.5766C30.9419 51.5598 27.883 42.5648 27.883 42.5648Z" fill="#FA7126"/>
<path d="M37.7067 2.5987C37.7067 2.5987 44.3186 3.71572 43.1891 14.0512C42.0715 24.3866 36.236 23.4812 35.8478 23.4577C35.4596 23.4459 29.9771 23.587 29.6947 10.947C29.6947 10.947 29.6124 1.61101 37.7067 2.5987Z" fill="#EEA987"/>
<path d="M40.6009 20.4712C40.6009 20.4712 40.3773 24.7276 40.7773 25.6565C41.1774 26.5854 35.4714 29.5132 31.9301 26.1739C31.9301 26.1739 32.6478 21.5177 32.4242 19.8833C32.2007 18.2371 40.6009 20.4712 40.6009 20.4712Z" fill="#EEA987"/>
<path d="M43.3303 11.1352C43.3303 11.1352 44.0597 10.3709 44.3185 11.1587C44.5773 11.9465 43.142 15.4269 43.2361 15.5915C43.2361 15.5915 43.095 15.8973 42.9303 15.7209C42.7655 15.5445 43.3303 11.1352 43.3303 11.1352Z" fill="#EEA987"/>
<path d="M29.7771 10.8529C29.7771 10.8529 29.0712 10.0534 28.7888 10.8294C28.4947 11.6055 29.5535 15.0859 29.683 15.2975C29.683 15.2975 29.9065 15.6503 30.0947 15.4974C30.2712 15.3328 29.7771 10.8529 29.7771 10.8529Z" fill="#EEA987"/>
<path d="M43.7539 10.2533C43.5303 11.6642 43.3068 12.7225 43.3068 12.7225L42.3421 13.9806C42.3421 13.9806 42.4009 11.2057 42.248 10.7706C42.1891 10.606 42.1303 10.3121 42.0597 9.99459C41.9538 9.47723 41.8362 8.87756 41.7538 8.68943C41.6244 8.37196 36.0949 6.76109 31.1536 9.03042C31.1536 9.03042 31.2007 9.45371 31.1889 9.93579C31.1889 10.4884 31.1301 11.1116 30.8712 11.2057C30.4006 11.3821 30.6007 14.4509 30.6007 14.4509L29.8359 13.5691C29.8359 13.5691 29.6124 11.9582 29.3889 10.1122C29.3889 10.1122 29.3889 10.1122 29.3889 10.1004C29.3418 9.66536 29.283 9.2303 29.2359 8.78349C29.13 6.9257 29.3065 3.55111 31.7301 1.57573C33.3654 0.881999 36.0125 0.693866 40.3538 2.02254C40.3538 2.02254 40.9068 1.91672 41.5891 1.94023C44.3186 4.91505 43.7539 10.2533 43.7539 10.2533Z" fill="#385369"/>
<path d="M32.8713 22.082C32.8713 22.082 33.9301 23.54 36.3772 23.493C38.8243 23.4342 39.895 22.1643 39.895 22.1643C39.895 22.1643 38.7302 24.5865 36.3655 24.563C34.0007 24.5395 32.8713 22.082 32.8713 22.082Z" fill="#C78D71"/>
<path d="M43.7538 10.2533C43.7538 10.2533 43.1774 10.1239 42.0715 9.98285C40.0832 9.73592 36.3655 9.47724 31.2124 9.9123C30.6359 9.95933 30.0242 10.0181 29.4124 10.0887C29.4124 10.0887 29.4124 10.0887 29.4124 10.0769C29.4006 9.9946 29.3065 9.489 29.2594 8.75999C29.1536 6.9022 28.9536 3.49233 31.3771 1.51696C32.4007 0.670369 34.2125 -0.0116084 36.2008 0.000149791C39.5773 0.011908 40.9656 0.8585 42.095 2.10487C44.8009 5.09144 43.7538 10.2533 43.7538 10.2533Z" fill="#EDDCCF"/>
<path d="M43.7539 11.2533C43.7539 11.2533 41.1421 12.335 36.542 12.2527C31.9419 12.1704 29.4124 11.0887 29.4124 11.0887C29.4124 11.0887 32.0713 10.2068 36.7184 10.2656C41.3538 10.3244 43.7539 11.2533 43.7539 11.2533Z" fill="#CCBEB2"/>
<path d="M31.3536 26.2445C31.3536 26.2445 33.0243 29.3957 36.389 29.6308C39.7538 29.866 40.9656 27.3262 41.2244 25.7741C41.2244 25.7741 36.5537 23.7282 31.3536 26.2445Z" fill="#EEA987"/>
<path d="M38.3537 55.9103H33.8713H29.3888L25.2123 60.0845V72.7951H33.8713H42.5303V60.0845L38.3537 55.9103Z" fill="#DB6321"/>
<path d="M16.4121 68.9737C16.4121 68.9737 16.8827 69.4911 17.4356 69.5381C18.4004 69.6321 19.6239 68.6562 20.5063 69.7497C21.3887 70.8432 18.7768 74.8175 17.9651 75.2408C17.1415 75.6523 15.518 74.5941 13.9415 72.0778C12.3767 69.5381 16.4121 68.9737 16.4121 68.9737Z" fill="#EEA886"/>
<path d="M20.1652 69.4204C20.1652 69.4204 22.024 70.3141 23.9652 71.5839C25.6712 72.6892 27.483 74.2648 27.1888 74.7234C26.7771 75.3583 25.4947 73.9356 23.7299 72.9596C22.1064 72.0543 22.2711 72.5246 22.2711 72.5246C22.2711 72.5246 22.2358 72.3835 23.8123 73.7357C25.5064 75.1819 27.3182 76.9692 26.9418 77.3807C26.7065 77.6394 26.7065 77.6982 26.0123 77.2867C26.3653 77.6159 26.3182 77.7687 26.2006 77.9451C25.5535 78.827 22.7299 77.1103 21.6122 76.4283C22.4711 76.9574 23.0476 77.4395 22.3181 77.7335C21.4946 78.0627 17.6122 75.4406 16.1298 74.6528C14.5062 73.7827 20.1652 69.4204 20.1652 69.4204Z" fill="#EEA886"/>
<path d="M17.6475 68.8796C17.6475 68.8796 16.6945 70.6198 13.7062 72.36C13.7062 72.36 7.64727 64.9289 4.88251 60.6136H13.2827C13.2827 60.6018 16.9886 67.3746 17.6475 68.8796Z" fill="#385369"/>
</svg>
