<svg width="130" height="203" viewBox="0 0 130 203" fill="none" xmlns="http://www.w3.org/2000/svg">
<path d="M107.343 0H64.8602V196.244H107.343V0Z" fill="#C4BEBE"/>
<path d="M103.72 18.3545H61.2365V196.232H103.72V18.3545Z" fill="#E3DCDC"/>
<path d="M85.6018 56.3335H61.2365V32.0646H89.9548V51.9829C89.9548 54.3816 88.0018 56.3335 85.6018 56.3335Z" fill="#FA7126"/>
<path d="M66.1661 59.8609L66.6955 59.8727L66.7308 57.5328L54.8482 55.581L54.907 50.1016L56.9659 50.1252V49.596L54.3893 49.5608L54.3187 56.0278L66.1896 57.9796L66.1661 59.8609Z" fill="#877373"/>
<path d="M58.1707 52.9026L76.0045 53.1112L76.0757 47.0328L58.2419 46.8242L58.1707 52.9026Z" fill="#E3DDDD"/>
<path d="M65.1105 75.4928H67.7576V59.4311H65.1105V75.4928Z" fill="#877373"/>
<path d="M69.4367 70.702C69.4367 70.702 68.8367 71.2193 68.4955 71.3134C68.4955 71.3134 67.8484 71.431 67.4014 71.5368C67.2602 71.5721 67.1308 71.6074 67.0484 71.6426C66.719 71.772 66.0131 72.1717 65.1543 72.2541C64.2954 72.3246 60.5895 71.5721 60.5895 71.5721L60.5424 69.1616L60.0953 66.9981C60.0953 66.9981 64.7307 63.5177 65.5307 63.3413C65.6131 63.3296 65.6837 63.3178 65.7543 63.3061C66.4366 63.2355 66.9543 63.506 67.319 63.506C67.4484 63.506 68.7543 63.6471 68.9543 64.0116C69.2249 64.5172 69.2249 65.0228 69.0485 65.4108C69.0485 65.4108 69.5426 66.4455 69.3896 67.2451C69.3896 67.2451 69.872 68.174 69.4367 69.1381C69.4367 69.1499 69.8367 70.1611 69.4367 70.702Z" fill="#EEA886"/>
<path d="M18.071 58.0854C18.071 58.0854 12.4708 74.782 13.1297 75.3112C13.7885 75.8403 28.7182 79.8028 28.7182 79.8028C28.7182 79.8028 26.7417 93.4423 25.9182 93.3247C24.7652 93.1601 4.04716 81.8722 3.44715 80.4377C2.84714 79.0032 7.54134 70.9489 7.54134 70.9489C7.54134 70.9489 14.5297 55.5574 18.071 58.0854Z" fill="#385369"/>
<path d="M39.4714 192.799C39.4714 192.799 44.1185 191.811 44.2832 191.67C44.4479 191.529 45.4127 189.66 46.1421 189.977C46.8715 190.283 46.9186 192.529 47.6362 192.893C48.3539 193.258 53.9893 196.926 54.6834 197.596C55.3776 198.267 59.5894 197.796 60.0953 198.972C60.6012 200.148 60.6953 202.958 54.3893 202.417C48.0833 201.865 40.9185 203.017 39.542 202.3C38.1655 201.571 39.0714 194.61 39.4714 192.799Z" fill="#323657"/>
<path d="M1.8589 190.2C1.8589 190.2 6.61195 189.977 6.78843 189.859C6.9649 189.742 8.22374 188.06 8.89434 188.484C9.56495 188.907 9.24729 191.129 9.89437 191.6C10.5414 192.07 15.518 196.597 16.0945 197.373C16.671 198.149 20.9064 198.349 21.2123 199.595C21.5182 200.842 21.1652 203.628 15.0239 202.076C8.88259 200.524 1.6236 200.512 0.388278 199.583C-0.835279 198.655 1.16477 191.941 1.8589 190.2Z" fill="#323657"/>
<path d="M30.9183 48.3496C30.883 48.4437 30.8477 48.5378 30.8242 48.6201C30.6477 49.1492 30.4948 49.6783 30.3653 50.1957C29.6594 53.0529 29.6594 55.5339 29.6594 55.5339C30.083 57.2506 22.7652 50.3015 22.7652 50.3015C22.7652 50.3015 23.1534 44.587 22.5652 38.2258C21.9652 31.8647 30.9183 48.3496 30.9183 48.3496Z" fill="#EEA886"/>
<path d="M34.0007 83.1304C33.8125 83.8476 33.6242 84.6002 33.436 85.3762C33.3537 85.7407 33.2713 86.1052 33.2007 86.4932C32.1419 92.0196 32.6948 100.015 33.5772 108.998C33.5772 108.998 29.6712 110.221 8.95312 113.561C8.12957 86.7166 13.2238 61.6834 13.2238 61.6834C15.365 54.7579 17.718 53.6761 22.5299 50.0428C22.5299 50.0428 23.4593 50.0781 30.0124 54.7579C30.4712 55.0871 32.5889 59.3201 33.9184 64.0351C36.2596 72.3599 35.6596 76.6751 34.0007 83.1304Z" fill="#DBDFF0"/>
<path d="M28.2359 75.6404C27.8006 76.4047 27.283 77.1102 26.73 77.7569C25.1535 79.5794 23.224 80.8963 21.5416 81.3667C20.6475 81.6136 19.824 81.6371 19.1651 81.3667C19.1063 81.3432 19.0475 81.3196 18.9886 81.2844C15.6945 79.6265 12.8709 60.0138 18.9181 56.5569C18.9181 56.5569 21.8005 55.0989 24.6123 56.2747C27.4241 57.4505 29.4242 62.4007 29.8007 69.6085C29.9066 71.772 29.2712 73.8532 28.2359 75.6404Z" fill="#385369"/>
<path d="M35.2242 32.3585C35.2242 32.3585 37.6949 36.0506 36.7066 36.7561C35.8948 37.3322 38.1184 40.9773 38.4243 41.5769C38.7302 42.1766 36.9655 42.7998 36.6243 43.2349C36.2831 43.6699 35.6125 48.7142 34.1419 49.0081C32.6713 49.2903 25.7652 47.5971 23.7652 45.8804C21.7652 44.1637 19.471 35.7449 20.3534 32.0293C21.2122 28.3137 30.883 25.9033 35.2242 32.3585Z" fill="#EEA886"/>
<path d="M35.742 33.1111C35.742 33.1111 36.1302 31.218 31.9419 28.4666C27.7535 25.7151 22.4358 29.3955 21.6475 29.6777C20.8593 29.9599 17.4004 33.9106 19.3651 38.5433C22.6475 46.292 22.8829 46.0568 22.8829 46.0568C22.8829 46.0568 23.2123 41.2242 24.6476 40.7421C26.2006 40.2248 28.33 39.5898 28.33 39.5898C28.33 39.5898 26.6123 36.0741 28.7183 35.3569C30.8124 34.6396 33.4949 32.5114 35.742 33.1111Z" fill="#754836"/>
<path d="M27.4358 39.9426C27.2829 39.531 26.6241 37.6615 25.1534 38.0848C23.6828 38.5081 24.4123 40.8127 25.6946 42.0708C26.977 43.3525 28.2476 42.2707 27.4358 39.9426Z" fill="#EEA886"/>
<path d="M36.2478 33.064C36.2478 33.064 31.6712 21.5645 22.1416 26.8557C11.0472 33.0052 20.9063 42.1413 20.9063 42.1413C20.9063 42.1413 23.5887 36.909 36.2478 33.064Z" fill="#FAB546"/>
<path d="M35.8243 32.0646C35.8243 32.0646 37.5302 32.0293 38.6008 32.241C41.9068 32.8877 31.5419 34.6749 30.6712 35.0864C22.4828 38.9666 35.8243 32.0646 35.8243 32.0646Z" fill="#FAB546"/>
<path d="M26.2005 57.5093C26.2005 57.5093 21.4475 52.9824 17.0356 58.9203C14.6121 62.1891 16.8239 66.2339 30.2595 77.3336C30.2595 77.3336 35.6478 82.8129 37.2243 83.1186C42.9303 84.2591 59.7189 74.3235 61.2366 73.0654L60.1307 66.8335C60.1307 66.8335 53.7776 69.9612 49.5775 71.0782C45.0127 72.2893 41.1891 73.9119 41.1891 73.9119L26.2005 57.5093Z" fill="#385369"/>
<path d="M22.5417 50.0428L22.6711 49.0904L30.13 53.488L30.0124 54.7579L22.5417 50.0428Z" fill="#CCD0E0"/>
<path d="M1.85889 190.2L3.11773 186.026L8.78846 186.838L8.00019 190.6L1.85889 190.2Z" fill="#3B3F66"/>
<path d="M39.1184 190.518L39.4714 192.799L45.6362 191.658L45.248 188.249L39.1184 190.518Z" fill="#555C94"/>
<path d="M24.5887 117.453C24.5887 117.453 23.6358 125.624 22.5769 133.985C22.3416 135.889 22.0946 137.806 21.8593 139.64C21.071 145.66 20.3534 150.775 20.0357 151.669C19.2004 154.091 10.6473 191.035 10.6473 191.035C10.6473 191.035 0.305889 192.176 0 191.188C0 191.188 8.0237 149.717 7.90605 148.341C7.7884 146.966 9.14137 108.34 9.14137 108.34C9.14137 108.34 24.1299 115.23 24.5887 117.453Z" fill="#DBDFF0"/>
<path d="M32.8713 105.718C32.8713 105.718 40.9538 143.497 41.6362 146.389C42.3185 149.282 48.9422 192.787 48.9422 192.787C48.9422 192.787 44.4951 195.762 38.3302 194.574C38.3302 194.574 28.9183 148.765 28.1888 147.377C25.3535 142.004 15.518 115.324 14.1533 111.597C12.7885 107.87 8.98846 104.095 8.98846 104.095C8.98846 104.095 18.8828 98.322 32.8713 105.718Z" fill="#DBDFF0"/>
<path d="M22.577 133.985C22.3417 135.889 22.0946 137.806 21.8593 139.64C18.9534 132.291 15.1768 114.525 15.118 114.254C15.518 115.348 22.577 133.985 22.577 133.985Z" fill="#BCC0CF"/>
<path d="M60.1071 49.8665C60.1071 51.5479 59.2482 52.9001 58.2012 52.9001C57.1423 52.9001 56.2952 51.5361 56.2952 49.8665C56.2952 48.185 57.1541 46.8329 58.2012 46.8329C59.2482 46.8329 60.1071 48.185 60.1071 49.8665Z" fill="#E3DDDD"/>
<path d="M77.9192 50.0781C77.9192 51.7595 77.0604 53.1117 76.0133 53.1117C74.9545 53.1117 74.1074 51.7478 74.1074 50.0781C74.1074 48.3967 74.9662 47.0445 76.0133 47.0445C77.0604 47.0327 77.9192 48.3967 77.9192 50.0781Z" fill="#B5B0B0"/>
<path d="M103.72 0H61.2365V42.6234H103.72V0Z" fill="#FA7126"/>
<path d="M28.2359 75.6404C27.8006 76.4047 27.2829 77.1102 26.73 77.7569C22.2122 73.1006 18.8592 66.81 18.7534 66.6101C20.1063 68.4326 28.2359 75.6404 28.2359 75.6404Z" fill="#293C4D"/>
<path d="M129.885 179.301H112.355V202.535H129.885V179.301Z" fill="#FA7126"/>
<path d="M129.885 185.815H112.355V202.535H129.885V185.815Z" fill="#EBEBEB"/>
<path d="M129.885 201.629H112.355V202.535H129.885V201.629Z" fill="#D1D1D1"/>
<path d="M117.32 192.199C115.179 192.199 113.567 191.494 112.555 190.095C109.908 186.473 112.261 179.595 112.355 179.301H112.743C112.72 179.371 110.332 186.402 112.861 189.871C113.802 191.165 115.308 191.811 117.32 191.811C122.191 191.811 125.155 189.189 126.779 187.002C128.697 184.415 129.508 181.276 129.567 179.301H129.885C129.826 181.182 129.203 184.392 127.097 187.226C125.414 189.495 122.344 192.199 117.32 192.199Z" fill="#5F6069"/>
<path d="M30.8242 48.6318C30.6477 49.1609 30.4947 49.6901 30.3653 50.2074C26.8241 49.3726 24.5417 46.4213 24.5417 46.4213C26.9182 47.7382 30.8242 48.6318 30.8242 48.6318Z" fill="#A77860"/>
</svg>
