<svg width="335" height="258" viewBox="0 0 335 258" fill="none" xmlns="http://www.w3.org/2000/svg">
<g filter="url(#filter0_d)">
<circle cx="160" cy="140" r="85" stroke="#EAE3E3" stroke-opacity="0.94" stroke-width="14"/>
</g>
<path d="M22.8857 131.226C22.8857 131.226 19.6268 131.002 19.1209 130.991C18.6268 130.967 17.4385 131.708 16.1444 132.66C14.862 133.624 13.5443 135.482 13.5678 135.764C13.5796 136.035 13.4737 136.329 13.909 136.881C14.3443 137.434 15.0738 137.646 15.0738 137.646C15.0738 137.646 15.2855 138.575 16.1444 138.798C16.1444 138.798 16.4032 139.656 17.4267 139.75C17.4267 139.75 17.6267 140.632 18.3679 140.644C18.3679 140.644 18.5209 140.526 18.7562 140.397C19.1444 140.174 19.7562 139.868 20.0738 139.774C20.5915 139.633 22.768 137.728 24.7916 135.753C24.7916 135.753 27.2975 133.883 22.8857 131.226Z" fill="#A77860"/>
<path d="M58.1452 149.463C58.1452 149.463 58.6276 136.858 58.4746 133.377C58.2393 128.286 57.3099 123.689 56.5569 120.679C56.5569 120.667 56.5569 120.667 56.5569 120.655L56.5452 120.62C56.3452 119.832 56.1687 119.162 56.004 118.609L51.4627 101.689C54.651 98.1265 65.2277 95.1164 65.2277 95.1164H72.7337C72.7337 95.1164 85.8752 99.1494 89.0988 100.384C92.3223 101.619 102.358 126.405 102.464 127.804C102.581 129.309 87.6987 148.428 87.6987 148.428C83.781 148.698 80.9104 145.63 80.9104 145.63C80.9104 145.63 93.1694 128.333 92.7577 126.323C92.4518 124.818 87.4046 117.716 87.0634 117.88C86.734 118.045 84.4634 130.579 86.7458 149.192C86.7575 149.181 77.6515 152.59 58.1452 149.463Z" fill="#FA7126"/>
<path d="M109.511 109.732C109.511 109.732 113.335 111.013 114.476 115.846C114.476 115.846 91.5458 127.028 74.0513 144.618C74.0043 144.689 73.9454 144.736 73.8866 144.783C73.8749 144.783 73.8748 144.795 73.8631 144.795C73.1101 145.312 71.5454 144.336 70.3807 142.631C69.2159 140.926 68.51 138.516 69.263 137.998C69.2865 137.987 69.3101 137.963 69.3453 137.951C70.9101 137.081 96.5224 122.666 109.511 109.732Z" fill="#BDC0CF"/>
<path d="M109.511 109.732C109.087 110.096 109.229 110.99 109.699 112.001C110.005 112.648 110.464 113.342 110.993 113.953C111.37 114.4 111.782 114.776 112.182 115.082C113.205 115.858 114.205 116.14 114.699 115.717C115.393 115.117 114.864 113.365 113.511 111.801C112.146 110.237 110.205 109.144 109.511 109.732Z" fill="#A0A4B0"/>
<path d="M109.817 111.202C109.64 111.354 109.617 111.637 109.699 112.001C110.005 112.648 110.464 113.342 110.993 113.953C111.37 114.4 111.782 114.776 112.182 115.082C112.617 115.293 113.005 115.317 113.229 115.129C113.687 114.741 113.335 113.588 112.44 112.554C111.558 111.531 110.276 110.802 109.817 111.202Z" fill="#8B8E99"/>
<path d="M112.77 115.493C112.77 115.493 116.44 117.151 117.087 122.078C117.087 122.078 93.1341 130.897 73.9337 146.617C73.8749 146.676 73.8161 146.723 73.7455 146.77C73.7337 146.77 73.7337 146.782 73.722 146.782C72.9102 147.217 71.4631 146.088 70.4749 144.277C69.4866 142.455 69.0395 139.986 69.8395 139.562C69.8631 139.551 69.8866 139.539 69.9219 139.527C71.5925 138.798 98.5342 127.04 112.77 115.493Z" fill="#E9EDFF"/>
<path d="M112.77 115.493C112.311 115.811 112.358 116.716 112.734 117.763C112.97 118.445 113.358 119.174 113.817 119.844C114.146 120.326 114.523 120.737 114.887 121.078C115.829 121.949 116.793 122.337 117.323 121.96C118.076 121.443 117.723 119.644 116.534 117.951C115.346 116.258 113.523 114.964 112.77 115.493Z" fill="#B5B9C7"/>
<path d="M112.935 116.975C112.746 117.104 112.687 117.398 112.735 117.763C112.97 118.445 113.358 119.174 113.817 119.844C114.146 120.326 114.523 120.737 114.888 121.078C115.299 121.325 115.688 121.396 115.935 121.231C116.429 120.89 116.193 119.703 115.417 118.597C114.629 117.48 113.429 116.634 112.935 116.975Z" fill="#9295A1"/>
<path d="M101.193 108.509C101.193 108.509 105.417 109.085 107.558 113.53C107.558 113.53 85.9457 128.263 71.2278 148.205C71.1925 148.275 71.1454 148.334 71.0866 148.393L71.0748 148.404C70.3925 149.028 68.5806 148.369 67.0277 146.923C65.4747 145.477 64.2747 143.278 64.957 142.655C64.9806 142.631 65.0041 142.619 65.0276 142.596C66.4865 141.502 90.2517 123.195 101.193 108.509Z" fill="#CACEDE"/>
<path d="M101.193 108.509C100.828 108.932 101.146 109.767 101.84 110.649C102.287 111.225 102.887 111.813 103.57 112.307C104.052 112.66 104.546 112.965 105.028 113.189C106.24 113.753 107.334 113.859 107.77 113.365C108.37 112.671 107.476 111.084 105.758 109.802C104.04 108.532 101.793 107.815 101.193 108.509Z" fill="#B5B9C7"/>
<path d="M101.805 109.861C101.652 110.037 101.676 110.32 101.84 110.649C102.287 111.225 102.887 111.813 103.57 112.307C104.052 112.66 104.546 112.965 105.029 113.189C105.523 113.306 105.934 113.271 106.134 113.048C106.534 112.589 105.934 111.543 104.817 110.708C103.676 109.873 102.205 109.403 101.805 109.861Z" fill="#9295A1"/>
<path d="M96.793 103.582C96.793 103.582 101.052 103.7 103.664 107.898C103.664 107.898 83.7575 124.841 71.2631 146.241C71.2396 146.312 71.1925 146.382 71.1454 146.441C71.1454 146.453 71.1337 146.453 71.1337 146.464C70.5219 147.158 68.6513 146.688 66.9571 145.418C65.263 144.148 63.8276 142.09 64.4394 141.397C64.4629 141.373 64.4865 141.35 64.51 141.338C65.8277 140.068 87.487 119.338 96.793 103.582Z" fill="#DBDFF0"/>
<path d="M96.793 103.582C96.4753 104.041 96.8871 104.84 97.6636 105.652C98.1695 106.169 98.8401 106.698 99.5578 107.121C100.075 107.427 100.605 107.662 101.099 107.839C102.37 108.274 103.464 108.262 103.84 107.721C104.37 106.969 103.299 105.475 101.464 104.394C99.6166 103.3 97.3106 102.83 96.793 103.582Z" fill="#B5B9C7"/>
<path d="M97.546 104.852C97.4165 105.04 97.4754 105.322 97.6636 105.64C98.1695 106.157 98.8401 106.686 99.5578 107.11C100.075 107.415 100.605 107.651 101.099 107.827C101.605 107.898 102.005 107.815 102.181 107.568C102.523 107.074 101.828 106.099 100.617 105.381C99.4048 104.676 97.8871 104.37 97.546 104.852Z" fill="#9295A1"/>
<path d="M0.155823 114.835C0.155823 114.835 1.54408 111.072 6.42654 110.049C6.42654 110.049 17.0738 133.154 34.2859 151.015C34.3447 151.062 34.4036 151.121 34.4506 151.191C34.4506 151.203 34.4624 151.203 34.4624 151.215C34.9565 151.979 33.9447 153.507 32.1918 154.625C30.4506 155.742 28.0034 156.376 27.5093 155.612C27.4975 155.589 27.4858 155.565 27.474 155.53C26.6269 153.943 12.8031 128.086 0.155823 114.835Z" fill="#DBDFF0"/>
<path d="M0.155821 114.835C0.508769 115.258 1.41467 115.152 2.43822 114.694C3.09705 114.4 3.80295 113.976 4.43825 113.459C4.89709 113.095 5.28533 112.695 5.60298 112.307C6.403 111.307 6.72065 110.32 6.30888 109.814C5.7324 109.109 3.95589 109.591 2.34409 110.896C0.720535 112.225 -0.432425 114.129 0.155821 114.835Z" fill="#B5B9C7"/>
<path d="M1.62647 114.564C1.76765 114.741 2.06177 114.776 2.42648 114.705C3.08532 114.412 3.79122 113.988 4.42653 113.471C4.88536 113.106 5.27361 112.707 5.59126 112.319C5.8148 111.884 5.85009 111.507 5.66185 111.272C5.28537 110.814 4.12064 111.131 3.06179 111.989C2.00294 112.836 1.24999 114.094 1.62647 114.564Z" fill="#9295A1"/>
<path d="M75.228 84.6281C75.228 84.6398 75.228 84.6398 75.228 84.6281C74.8044 86.3565 74.2162 88.0379 73.4868 89.5077C70.9573 94.5872 62.9807 96.3392 60.3806 84.3223C59.8865 82.053 59.7924 80.1364 59.9453 78.5491C60.4865 72.8699 64.1454 71.2002 64.1454 71.2002C66.9572 70.4594 72.075 70.142 74.4985 73.4931C76.2162 75.88 76.2515 80.3951 75.228 84.6281Z" fill="#A77860"/>
<path d="M75.2279 84.6281C75.2279 84.6398 75.2279 84.6398 75.2279 84.6281C75.2279 84.6398 74.8396 84.8279 72.7455 82.1588C72.3219 81.6297 72.1808 82.1 72.0043 81.8649L69.4631 81.4298C69.4631 81.4298 70.9925 77.0793 67.7219 76.6207C64.3924 76.1622 59.9335 78.5491 59.9335 78.5491C60.4747 72.8699 64.1336 71.2002 64.1336 71.2002C66.9454 70.4594 72.0631 70.142 74.4867 73.4931C76.2161 75.88 76.2514 80.3951 75.2279 84.6281Z" fill="#665249"/>
<path d="M71.1572 80.1599C71.169 79.3251 72.6161 78.3022 73.6514 79.8895C74.6867 81.4769 72.7925 83.7815 72.1219 83.5228C71.4513 83.2641 71.1454 81.5474 71.1572 80.1599Z" fill="#A77860"/>
<path d="M76.2044 79.2663C76.2044 79.2663 67.569 75.5978 59.1217 79.2663C59.1217 79.2663 57.3805 68.1784 67.816 68.002C77.628 67.8374 76.275 77.9612 76.2044 79.2663Z" fill="#FA7126"/>
<path d="M70.8631 77.8906C70.8631 77.8906 63.6277 80.7714 58.6158 80.7479C53.6039 80.7244 59.0393 78.0905 59.0393 78.0905C59.0393 78.0905 62.7806 76.0211 70.8631 77.8906Z" fill="#FA7126"/>
<path d="M91.0047 238.613C91.0047 238.613 91.9812 240.965 92.8165 241.894C93.64 242.823 96.8048 244.492 96.8283 247.267C96.8518 250.266 91.487 249.443 89.3929 249.325C87.2987 249.219 87.1458 247.608 86.2634 245.915C85.381 244.21 84.4986 244.504 84.3222 243.128C84.1575 241.753 84.9928 238.684 84.9928 238.684L91.0047 238.613Z" fill="#163342"/>
<path d="M91.1694 237.955L91.0047 239.495C91.0047 239.495 88.1811 240.553 85.0634 239.495L85.0869 237.555L91.1694 237.955Z" fill="#2F6B8C"/>
<path d="M59.4276 238.613C59.4276 238.613 58.4511 240.965 57.6157 241.894C56.7922 242.823 53.6274 244.492 53.6039 247.267C53.5804 250.266 58.9334 249.443 61.0276 249.325C63.1218 249.219 63.2747 247.608 64.1571 245.915C65.0394 244.21 65.9218 244.504 66.0983 243.128C66.263 241.753 65.4277 238.684 65.4277 238.684L59.4276 238.613Z" fill="#163342"/>
<path d="M59.3335 237.743L59.4982 239.283C59.4982 239.283 62.3218 240.342 65.4395 239.283L65.416 237.343L59.3335 237.743Z" fill="#2F6B8C"/>
<path d="M86.2987 145.794C85.9458 145.63 85.5811 145.488 85.2046 145.347C76.1221 142.102 58.6041 145.535 58.6041 145.535L58.0276 150.474C57.4158 155.753 56.557 163.49 56.6393 164.302C56.7688 165.536 54.8981 195.531 54.8981 199.235C54.8981 202.939 57.7688 237.978 57.7688 237.978C58.1453 239.213 65.1101 239.342 66.3572 238.731C67.5925 238.119 66.2513 203.045 66.4748 199.317C66.6984 195.578 72.3808 167.77 73.4632 167.9C74.5456 168.017 78.1692 198.812 79.028 201.646C79.8986 204.479 84.2987 238.554 84.2987 238.554C87.0282 240.154 92.7577 238.554 92.7577 238.554C92.7577 238.554 91.6871 203.174 91.5341 202.139C91.2988 200.599 91.5459 196.437 90.9106 187.195C90.3459 178.929 88.3105 160.95 87.0164 151.203L86.2987 145.794Z" fill="#385369"/>
<path d="M67.0395 234.592L66.6042 238.731C66.6042 238.731 66.2277 239.319 62.1806 239.425C58.1452 239.542 57.4981 238.119 57.4981 238.119L57.3217 234.392C57.3334 234.392 60.8747 236.073 67.0395 234.592Z" fill="#4F7594"/>
<path d="M83.4281 234.839L83.8634 238.978C83.8634 238.978 84.2399 239.566 88.287 239.671C92.3223 239.789 92.9694 238.366 92.9694 238.366L93.1459 234.639C93.1459 234.627 89.6047 236.32 83.4281 234.839Z" fill="#4F7594"/>
<path d="M25.274 136.411C25.274 136.411 38.4508 130.144 41.6038 128.11C43.0391 127.193 46.4156 124.829 48.4863 122.148C49.1686 121.267 49.8392 120.338 50.4745 119.432C53.0158 115.775 55.004 112.272 55.004 112.272C55.004 112.272 62.5218 103.5 56.4864 99.5962C56.4864 99.5962 53.5922 99.4081 51.5804 101.548C49.5686 103.688 47.9098 107.557 47.3803 108.697C46.8509 109.838 42.1096 115.599 41.7332 115.834C41.3449 116.069 37.6154 121.455 35.2507 122.513C32.2977 123.83 21.1798 130.697 21.1798 130.697L25.274 136.411Z" fill="#FA7126"/>
<path d="M65.1218 95.1516C65.1218 95.1516 63.5453 95.4926 70.1572 101.795C70.1572 101.795 74.8514 96.6332 74.6985 95.7631C74.5456 94.9047 65.1218 95.1516 65.1218 95.1516Z" fill="#A77860"/>
<path d="M74.6985 95.7631C74.6985 95.7631 73.6985 90.2367 73.9573 88.5083C74.2044 86.7798 65.3689 89.6958 65.3689 89.6958C65.3689 89.6958 65.4395 91.3067 65.4042 92.8117C65.3807 93.4702 65.3454 94.1051 65.2748 94.5755C65.2395 94.8224 65.1924 95.0223 65.1336 95.1516C64.6865 96.1276 68.5455 101.231 74.6985 95.7631Z" fill="#A77860"/>
<path d="M13.8855 135.494C13.8855 135.494 17.2032 133.142 17.6503 133.624C18.0973 134.106 17.9679 134.553 17.9679 134.553L19.7797 134.201C19.7797 134.201 21.1091 134.647 20.2385 135.953C20.2385 135.953 21.5209 136.235 20.5327 137.399C20.5327 137.399 21.2974 137.963 20.9327 138.586C20.568 139.21 18.3679 140.632 18.3679 140.632C18.3679 140.632 17.7679 140.726 17.3561 139.774C17.3561 139.774 16.3796 139.739 16.0973 138.81C16.0973 138.81 15.3208 138.657 15.0267 137.646C15.0267 137.646 13.309 137.187 13.5678 135.741C13.5678 135.753 13.7561 135.588 13.8855 135.494Z" fill="#A77860"/>
<path d="M19.0032 131.038C19.0032 131.038 17.7091 133.507 17.6032 135.165C17.5797 135.541 17.6267 135.905 17.9679 136.07C18.3091 136.235 18.9797 135.953 19.5915 134.906C20.2033 133.86 21.4739 132.801 21.4739 132.801C21.4739 132.801 21.7915 131.555 19.0032 131.038Z" fill="#A77860"/>
<path d="M57.0511 122.63C57.0511 122.63 61.1335 120.843 62.7924 113.647H78.9692C78.9692 113.647 83.7458 123.336 86.3576 123.877C86.3576 123.877 85.687 134.33 85.9694 138.386C86.2517 142.455 86.7694 150.18 86.7694 150.18C86.7694 150.18 86.2988 157.435 57.8393 152.355C57.8393 152.355 58.1688 135.188 58.1335 134.471C58.1099 133.754 57.1687 123.054 57.0511 122.63Z" fill="#385369"/>
<path d="M62.7924 113.647C62.7924 113.647 61.0277 103.923 56.9335 98.1735C56.9335 98.1735 57.3452 97.6797 58.4276 97.515C58.4276 97.515 62.8395 103.911 64.5336 113.636C66.216 123.371 62.7924 113.647 62.7924 113.647Z" fill="#385369"/>
<path d="M78.7809 113.647C78.7809 113.647 80.0515 104.452 84.1457 98.7026C84.1457 98.7026 83.7222 98.2676 82.6398 98.2205C82.6398 98.2205 78.7339 103.923 77.0397 113.647C75.3574 123.371 78.7809 113.647 78.7809 113.647Z" fill="#385369"/>
<path d="M67.1219 125.006H71.8043H76.4867L80.8515 129.344V142.572H71.8043H62.7571V129.344L67.1219 125.006Z" fill="#446580"/>
<path d="M86.334 123.877C86.334 123.877 86.9105 118.08 87.24 116.892C87.24 116.892 82.8634 118.703 82.5693 119.973C82.5575 119.985 84.4634 123.383 86.334 123.877Z" fill="#FA7126"/>
<path d="M81.3339 154.871C81.3339 154.871 82.0751 154.577 82.3104 154.307C82.3104 154.307 82.7104 153.79 83.0163 153.437C83.1104 153.331 83.2045 153.225 83.2634 153.178C83.534 152.943 84.2163 152.508 84.6752 151.767C85.134 151.038 86.1693 147.405 86.1693 147.405L84.0398 146.264L82.2045 144.948C82.2045 144.948 77.0632 147.393 76.5338 148.028C76.4867 148.087 76.4397 148.158 76.3926 148.216C76.0161 148.792 76.0161 149.369 75.8514 149.698C75.7926 149.815 75.3102 151.038 75.5573 151.379C75.8867 151.861 76.3338 152.085 76.7573 152.108C76.7573 152.108 77.4515 153.025 78.2397 153.261C78.2397 153.261 78.8515 154.119 79.9221 154.166C79.9456 154.154 80.6751 154.977 81.3339 154.871Z" fill="#A77860"/>
<path d="M102.064 128.768C102.064 128.768 88.0987 148.158 87.0399 149.486C87.0399 149.486 82.0751 149.604 80.5221 145.935C80.5221 145.935 85.4281 138.798 85.8399 137.975C85.8399 137.987 98.899 130.32 102.064 128.768Z" fill="#FA7126"/>
<path d="M65.3925 92.8117C65.3925 92.8117 69.2514 95.2574 72.8161 90.6012C72.8161 90.6012 71.122 94.7283 68.4749 94.6343C65.8278 94.5402 65.3925 92.8117 65.3925 92.8117Z" fill="#A77860"/>
<path d="M312.343 55H269.86V251.244H312.343V55Z" fill="#C4BEBE"/>
<path d="M308.72 73.3545H266.237V251.232H308.72V73.3545Z" fill="#E3DCDC"/>
<path d="M290.602 111.333H266.237V87.0646H294.955V106.983C294.955 109.382 293.002 111.333 290.602 111.333Z" fill="#FA7126"/>
<path d="M271.166 114.861L271.696 114.873L271.731 112.533L259.848 110.581L259.907 105.102L261.966 105.125V104.596L259.389 104.561L259.319 111.028L271.19 112.98L271.166 114.861Z" fill="#877373"/>
<path d="M263.171 107.903L281.005 108.111L281.076 102.033L263.242 101.824L263.171 107.903Z" fill="#E3DDDD"/>
<path d="M270.11 130.493H272.758V114.431H270.11V130.493Z" fill="#877373"/>
<path d="M274.437 125.702C274.437 125.702 273.837 126.219 273.496 126.313C273.496 126.313 272.848 126.431 272.401 126.537C272.26 126.572 272.131 126.607 272.048 126.643C271.719 126.772 271.013 127.172 270.154 127.254C269.295 127.325 265.589 126.572 265.589 126.572L265.542 124.162L265.095 121.998C265.095 121.998 269.731 118.518 270.531 118.341C270.613 118.33 270.684 118.318 270.754 118.306C271.437 118.236 271.954 118.506 272.319 118.506C272.448 118.506 273.754 118.647 273.954 119.012C274.225 119.517 274.225 120.023 274.048 120.411C274.048 120.411 274.543 121.446 274.39 122.245C274.39 122.245 274.872 123.174 274.437 124.138C274.437 124.15 274.837 125.161 274.437 125.702Z" fill="#EEA886"/>
<path d="M223.071 113.085C223.071 113.085 217.471 129.782 218.13 130.311C218.789 130.84 233.718 134.803 233.718 134.803C233.718 134.803 231.742 148.442 230.918 148.325C229.765 148.16 209.047 136.872 208.447 135.438C207.847 134.003 212.541 125.949 212.541 125.949C212.541 125.949 219.53 110.557 223.071 113.085Z" fill="#385369"/>
<path d="M244.471 247.799C244.471 247.799 249.119 246.811 249.283 246.67C249.448 246.529 250.413 244.66 251.142 244.977C251.872 245.283 251.919 247.529 252.636 247.893C253.354 248.258 258.989 251.926 259.683 252.596C260.378 253.267 264.589 252.796 265.095 253.972C265.601 255.148 265.695 257.958 259.389 257.417C253.083 256.865 245.918 258.017 244.542 257.3C243.165 256.571 244.071 249.61 244.471 247.799Z" fill="#323657"/>
<path d="M206.859 245.2C206.859 245.2 211.612 244.977 211.788 244.859C211.965 244.742 213.224 243.06 213.894 243.484C214.565 243.907 214.247 246.129 214.894 246.6C215.541 247.07 220.518 251.597 221.095 252.373C221.671 253.149 225.906 253.349 226.212 254.595C226.518 255.842 226.165 258.628 220.024 257.076C213.883 255.524 206.624 255.512 205.388 254.583C204.165 253.655 206.165 246.941 206.859 245.2Z" fill="#323657"/>
<path d="M235.918 103.35C235.883 103.444 235.848 103.538 235.824 103.62C235.648 104.149 235.495 104.678 235.365 105.196C234.659 108.053 234.659 110.534 234.659 110.534C235.083 112.251 227.765 105.302 227.765 105.302C227.765 105.302 228.153 99.587 227.565 93.2258C226.965 86.8647 235.918 103.35 235.918 103.35Z" fill="#EEA886"/>
<path d="M239.001 138.13C238.812 138.848 238.624 139.6 238.436 140.376C238.354 140.741 238.271 141.105 238.201 141.493C237.142 147.02 237.695 155.015 238.577 163.998C238.577 163.998 234.671 165.221 213.953 168.561C213.13 141.717 218.224 116.683 218.224 116.683C220.365 109.758 222.718 108.676 227.53 105.043C227.53 105.043 228.459 105.078 235.012 109.758C235.471 110.087 237.589 114.32 238.918 119.035C241.26 127.36 240.66 131.675 239.001 138.13Z" fill="#DBDFF0"/>
<path d="M233.236 130.64C232.801 131.405 232.283 132.11 231.73 132.757C230.154 134.579 228.224 135.896 226.542 136.367C225.648 136.614 224.824 136.637 224.165 136.367C224.106 136.343 224.047 136.32 223.989 136.284C220.694 134.626 217.871 115.014 223.918 111.557C223.918 111.557 226.8 110.099 229.612 111.275C232.424 112.45 234.424 117.401 234.801 124.608C234.907 126.772 234.271 128.853 233.236 130.64Z" fill="#385369"/>
<path d="M240.224 87.3585C240.224 87.3585 242.695 91.0506 241.707 91.7561C240.895 92.3322 243.118 95.9773 243.424 96.5769C243.73 97.1766 241.965 97.7998 241.624 98.2349C241.283 98.6699 240.612 103.714 239.142 104.008C237.671 104.29 230.765 102.597 228.765 100.88C226.765 99.1637 224.471 90.7449 225.353 87.0293C226.212 83.3137 235.883 80.9033 240.224 87.3585Z" fill="#EEA886"/>
<path d="M240.742 88.1111C240.742 88.1111 241.13 86.218 236.942 83.4666C232.754 80.7151 227.436 84.3955 226.648 84.6777C225.859 84.9599 222.4 88.9106 224.365 93.5433C227.648 101.292 227.883 101.057 227.883 101.057C227.883 101.057 228.212 96.2242 229.648 95.7421C231.201 95.2248 233.33 94.5898 233.33 94.5898C233.33 94.5898 231.612 91.0741 233.718 90.3569C235.812 89.6396 238.495 87.5114 240.742 88.1111Z" fill="#754836"/>
<path d="M232.436 94.9426C232.283 94.531 231.624 92.6615 230.153 93.0848C228.683 93.5081 229.412 95.8127 230.695 97.0708C231.977 98.3525 233.248 97.2707 232.436 94.9426Z" fill="#EEA886"/>
<path d="M241.248 88.064C241.248 88.064 236.671 76.5645 227.142 81.8557C216.047 88.0052 225.906 97.1413 225.906 97.1413C225.906 97.1413 228.589 91.909 241.248 88.064Z" fill="#FAB546"/>
<path d="M240.824 87.0646C240.824 87.0646 242.53 87.0293 243.601 87.241C246.907 87.8877 236.542 89.6749 235.671 90.0864C227.483 93.9666 240.824 87.0646 240.824 87.0646Z" fill="#FAB546"/>
<path d="M231.201 112.509C231.201 112.509 226.448 107.982 222.036 113.92C219.612 117.189 221.824 121.234 235.259 132.334C235.259 132.334 240.648 137.813 242.224 138.119C247.93 139.259 264.719 129.323 266.237 128.065L265.131 121.834C265.131 121.834 258.778 124.961 254.577 126.078C250.013 127.289 246.189 128.912 246.189 128.912L231.201 112.509Z" fill="#385369"/>
<path d="M227.542 105.043L227.671 104.09L235.13 108.488L235.012 109.758L227.542 105.043Z" fill="#CCD0E0"/>
<path d="M206.859 245.2L208.118 241.026L213.788 241.838L213 245.6L206.859 245.2Z" fill="#3B3F66"/>
<path d="M244.118 245.518L244.471 247.799L250.636 246.658L250.248 243.249L244.118 245.518Z" fill="#555C94"/>
<path d="M229.589 172.453C229.589 172.453 228.636 180.624 227.577 188.985C227.342 190.889 227.095 192.806 226.859 194.64C226.071 200.66 225.353 205.775 225.036 206.669C224.2 209.091 215.647 246.035 215.647 246.035C215.647 246.035 205.306 247.176 205 246.188C205 246.188 213.024 204.717 212.906 203.341C212.788 201.966 214.141 163.34 214.141 163.34C214.141 163.34 229.13 170.23 229.589 172.453Z" fill="#DBDFF0"/>
<path d="M237.871 160.718C237.871 160.718 245.954 198.497 246.636 201.389C247.319 204.282 253.942 247.787 253.942 247.787C253.942 247.787 249.495 250.762 243.33 249.574C243.33 249.574 233.918 203.765 233.189 202.377C230.353 197.004 220.518 170.324 219.153 166.597C217.789 162.87 213.988 159.095 213.988 159.095C213.988 159.095 223.883 153.322 237.871 160.718Z" fill="#DBDFF0"/>
<path d="M227.577 188.985C227.342 190.889 227.095 192.806 226.859 194.64C223.953 187.291 220.177 169.525 220.118 169.254C220.518 170.348 227.577 188.985 227.577 188.985Z" fill="#BCC0CF"/>
<path d="M265.107 104.866C265.107 106.548 264.248 107.9 263.201 107.9C262.142 107.9 261.295 106.536 261.295 104.866C261.295 103.185 262.154 101.833 263.201 101.833C264.248 101.833 265.107 103.185 265.107 104.866Z" fill="#E3DDDD"/>
<path d="M282.919 105.078C282.919 106.76 282.06 108.112 281.013 108.112C279.954 108.112 279.107 106.748 279.107 105.078C279.107 103.397 279.966 102.044 281.013 102.044C282.06 102.033 282.919 103.397 282.919 105.078Z" fill="#B5B0B0"/>
<path d="M308.72 55H266.237V97.6234H308.72V55Z" fill="#FA7126"/>
<path d="M233.236 130.64C232.801 131.405 232.283 132.11 231.73 132.757C227.212 128.101 223.859 121.81 223.753 121.61C225.106 123.433 233.236 130.64 233.236 130.64Z" fill="#293C4D"/>
<path d="M334.885 234.301H317.355V257.535H334.885V234.301Z" fill="#FA7126"/>
<path d="M334.885 240.815H317.355V257.535H334.885V240.815Z" fill="#EBEBEB"/>
<path d="M334.885 256.629H317.355V257.535H334.885V256.629Z" fill="#D1D1D1"/>
<path d="M322.32 247.199C320.179 247.199 318.567 246.494 317.555 245.095C314.908 241.473 317.261 234.595 317.355 234.301H317.743C317.72 234.371 315.332 241.402 317.861 244.871C318.802 246.165 320.308 246.811 322.32 246.811C327.191 246.811 330.155 244.189 331.779 242.002C333.697 239.415 334.508 236.276 334.567 234.301H334.885C334.826 236.182 334.203 239.392 332.097 242.226C330.414 244.495 327.344 247.199 322.32 247.199Z" fill="#5F6069"/>
<path d="M235.824 103.632C235.648 104.161 235.495 104.69 235.365 105.207C231.824 104.373 229.542 101.421 229.542 101.421C231.918 102.738 235.824 103.632 235.824 103.632Z" fill="#A77860"/>
<path d="M203.931 54.0878C203.931 54.0878 206.696 52.8532 207.12 52.6769C207.543 52.5005 208.814 52.7592 210.237 53.1825C211.661 53.6057 213.402 54.8168 213.484 55.052C213.555 55.2989 213.755 55.5106 213.543 56.1338C213.343 56.7569 212.826 57.1802 212.826 57.1802C212.826 57.1802 212.943 58.0739 212.273 58.5324C212.273 58.5324 212.343 59.379 211.496 59.7788C211.496 59.7788 211.543 60.6019 210.896 60.8488C210.896 60.8488 209.625 60.5901 209.131 60.6371C208.637 60.6724 206.131 59.72 203.743 58.65C203.743 58.6618 200.955 57.8269 203.931 54.0878Z" fill="#EEA886"/>
<path d="M211.459 48.2997L190.716 150.44L192.619 150.826L213.361 48.6856L211.459 48.2997Z" fill="#8A664D"/>
<path d="M182.495 144.755L178.707 163.439C180.884 170.106 187.366 172.046 187.366 172.046C187.366 172.046 194.096 172.787 198.696 167.496L202.484 148.812L182.495 144.755Z" fill="#4A3F3F"/>
<path d="M192.66 150.834L190.754 150.446L193.037 139.194L194.943 139.57L192.66 150.834Z" fill="#C9C3C3"/>
<path d="M182.495 144.755L178.707 163.439C180.884 170.106 187.366 172.046 187.366 172.046C187.366 172.046 194.096 172.787 198.696 167.495L202.484 148.812L182.495 144.755Z" fill="#C9C3C3"/>
<path d="M207.896 55.7692C207.896 55.7692 206.861 56.8863 206.414 57.0509C205.967 57.2155 207.684 60.1903 207.684 60.1903C207.684 60.1903 209.214 57.0626 207.896 55.7692Z" fill="#CF8C6C"/>
<path d="M202.708 55.828C202.708 55.828 203.967 55.1578 204.625 54.4523C205.284 53.7586 206.214 59.2379 206.214 59.2379C206.214 59.2379 203.919 59.0733 202.19 58.9322C200.825 58.8263 202.708 55.828 202.708 55.828Z" fill="#EEA886"/>
<path d="M182.072 55.3459C184.896 56.2043 202.672 59.5671 202.672 59.5671L204.461 53.5822C204.461 53.5822 195.39 52.0419 192.413 51.0542C190.131 50.3017 186.237 49.2905 185.884 49.0671C185.531 48.8436 177.413 39.8134 176.919 38.7551C176.437 37.6969 174.731 33.8284 172.872 31.8413C171.013 29.8542 168.507 30.301 168.507 30.301C162.93 33.9343 169.531 42.847 169.531 42.847C169.531 42.847 171.731 45.3397 174.084 48.7261C174.084 48.7261 178.319 54.2054 182.072 55.3459Z" fill="#385369"/>
<path d="M213.12 54.9226C213.12 54.9226 209.472 53.9467 209.249 54.5111C209.014 55.0755 209.272 55.4282 209.272 55.4282L207.59 55.6987C207.59 55.6987 206.578 56.51 207.755 57.3683C207.755 57.3683 206.731 58.0268 207.967 58.7205C207.967 58.7205 207.484 59.4613 208.002 59.8846C208.52 60.3079 210.884 60.837 210.884 60.837C210.884 60.837 211.437 60.7194 211.484 59.767C211.484 59.767 212.32 59.426 212.261 58.5206C212.261 58.5206 212.884 58.1444 212.814 57.1685C212.814 57.1685 214.155 56.216 213.461 55.0402C213.484 55.052 213.273 54.9697 213.12 54.9226Z" fill="#DB9C7C"/>
<path d="M133.812 164.497C133.812 164.497 132.883 166.731 132.094 167.625C131.306 168.507 128.306 170.094 128.294 172.728C128.283 175.585 133.353 174.797 135.33 174.692C137.318 174.586 137.459 173.057 138.295 171.446C139.13 169.824 139.977 170.106 140.13 168.801C140.283 167.496 139.495 164.579 139.495 164.579L133.812 164.497Z" fill="#163342"/>
<path d="M170.06 164.497C170.06 164.497 170.989 166.731 171.778 167.625C172.566 168.507 175.566 170.094 175.578 172.728C175.589 175.585 170.519 174.797 168.542 174.692C166.554 174.586 166.413 173.057 165.577 171.446C164.742 169.824 163.895 170.106 163.742 168.801C163.589 167.496 164.377 164.579 164.377 164.579L170.06 164.497Z" fill="#163342"/>
<path d="M168.848 127.612C168.848 131.139 171.919 163.298 171.919 163.298C171.566 164.474 164.036 164.333 162.86 163.745C161.683 163.157 158.271 131.28 158.048 127.729C157.836 124.178 151.907 94.9593 150.871 95.0769C149.836 95.1944 145.977 126.624 145.154 129.328C144.33 132.033 140.6 164.05 140.6 164.05C138.012 165.579 131.871 163.662 131.871 163.662C131.871 163.662 133.153 130.786 133.306 129.799C133.53 128.329 133.294 124.366 133.894 115.583C134.424 107.729 136.365 90.6088 137.589 81.3433C137.6 81.2963 138.071 77.7336 138.283 76.205C144.754 73.2302 158.071 74.6882 164.519 75.9698C164.507 75.8405 164.989 79.9441 165.072 80.6613C165.648 85.6821 166.472 93.0427 166.389 93.807C166.272 94.9828 168.848 124.084 168.848 127.612Z" fill="#FA7126"/>
<path d="M161.648 160.335L162.13 164.885C162.13 164.885 162.542 165.532 166.966 165.649C171.389 165.779 172.095 164.203 172.095 164.203L172.284 160.1C172.295 160.111 168.413 161.969 161.648 160.335Z" fill="#DB6321"/>
<path d="M141.377 160.499L140.93 164.756C140.93 164.756 140.542 165.356 136.4 165.473C132.259 165.591 131.6 164.121 131.6 164.121L131.424 160.288C131.412 160.288 135.047 162.028 141.377 160.499Z" fill="#DB6321"/>
<path d="M131.706 72.36C131.706 72.36 118.035 55.2284 118 51.7479C117.988 50.1371 120.977 45.8453 122.953 43.3291C125.483 40.0956 128.941 36.5563 130.518 35.0395C130.518 35.0395 137.624 26.5972 142.624 31.1946C142.624 31.1946 142.483 34.287 140.977 36.6269C139.471 38.9668 137.565 40.754 136.636 41.5065C135.706 42.2591 127.388 50.9954 127.259 51.4069C127.13 51.8185 129.059 56.7216 130.294 58.8381C132.047 61.86 135.659 68.8914 135.659 68.8914L131.706 72.36Z" fill="#385369"/>
<path d="M158.777 25.6565C158.777 25.6565 160.272 25.9857 153.954 31.9119C153.954 31.9119 149.577 27.0557 149.73 26.2327C149.883 25.4096 158.777 25.6565 158.777 25.6565Z" fill="#EEA987"/>
<path d="M172.06 31.1358L167.154 47.997C167.001 48.5144 166.813 49.1493 166.625 49.9019L166.613 49.9254C166.613 49.9371 166.613 49.9371 166.613 49.9489C165.872 52.8061 164.942 57.1449 164.672 61.9775C164.483 65.2698 164.66 75.7463 164.66 75.7463C164.66 75.7463 158.471 78.0157 148.365 77.3807C148.365 77.3807 137.377 80.1321 138.259 73.477C140.6 55.8515 138.306 48.5732 138 46.8095C138 46.8095 137.647 37.5675 136.589 30.395C139.648 29.2545 151.589 25.5507 151.589 25.5507L158.671 25.633C158.671 25.6212 168.001 28.0787 172.06 31.1358Z" fill="#385369"/>
<path d="M166.272 51.3364C166.272 51.3364 162.06 49.3728 160.601 42.7176L145.742 42.553C145.742 42.553 141.295 51.3834 138.895 51.8655C138.895 51.8655 139.365 61.566 139.059 65.3169C138.765 69.0678 137.859 76.1462 137.859 76.1462C137.859 76.1462 138.624 82.9424 164.824 78.5331C164.824 78.5331 164.836 63.1299 164.883 62.4714C164.919 61.813 166.166 51.7244 166.272 51.3364Z" fill="#FA7126"/>
<path d="M160.577 42.7176C160.577 42.7176 162.53 33.4287 166.354 28.1728C166.354 28.1728 165.919 27.7847 164.93 27.6201C164.93 27.6201 160.648 33.7461 158.989 42.7059C157.33 51.6539 160.577 42.7176 160.577 42.7176Z" fill="#FA7126"/>
<path d="M145.883 42.5648C145.883 42.5648 144.742 34.2283 141.036 28.89C141.036 28.89 141.636 28.5138 142.624 28.3727C142.624 28.3727 146.012 33.5933 147.471 42.5766C148.942 51.5598 145.883 42.5648 145.883 42.5648Z" fill="#FA7126"/>
<path d="M155.707 2.5987C155.707 2.5987 162.319 3.71572 161.189 14.0512C160.071 24.3866 154.236 23.4812 153.848 23.4577C153.46 23.4459 147.977 23.587 147.695 10.947C147.695 10.947 147.612 1.61101 155.707 2.5987Z" fill="#EEA987"/>
<path d="M158.601 20.4712C158.601 20.4712 158.377 24.7276 158.777 25.6565C159.177 26.5854 153.471 29.5132 149.93 26.1739C149.93 26.1739 150.648 21.5177 150.424 19.8833C150.201 18.2371 158.601 20.4712 158.601 20.4712Z" fill="#EEA987"/>
<path d="M161.33 11.1352C161.33 11.1352 162.06 10.3709 162.319 11.1587C162.577 11.9465 161.142 15.4269 161.236 15.5915C161.236 15.5915 161.095 15.8973 160.93 15.7209C160.766 15.5445 161.33 11.1352 161.33 11.1352Z" fill="#EEA987"/>
<path d="M147.777 10.8529C147.777 10.8529 147.071 10.0534 146.789 10.8294C146.495 11.6055 147.554 15.0859 147.683 15.2975C147.683 15.2975 147.906 15.6503 148.095 15.4974C148.271 15.3328 147.777 10.8529 147.777 10.8529Z" fill="#EEA987"/>
<path d="M161.754 10.2533C161.53 11.6642 161.307 12.7225 161.307 12.7225L160.342 13.9806C160.342 13.9806 160.401 11.2057 160.248 10.7706C160.189 10.606 160.13 10.3121 160.06 9.99459C159.954 9.47723 159.836 8.87756 159.754 8.68943C159.624 8.37196 154.095 6.76109 149.154 9.03042C149.154 9.03042 149.201 9.45371 149.189 9.93579C149.189 10.4884 149.13 11.1116 148.871 11.2057C148.401 11.3821 148.601 14.4509 148.601 14.4509L147.836 13.5691C147.836 13.5691 147.612 11.9582 147.389 10.1122C147.389 10.1122 147.389 10.1122 147.389 10.1004C147.342 9.66536 147.283 9.2303 147.236 8.78349C147.13 6.9257 147.307 3.55111 149.73 1.57573C151.365 0.881999 154.013 0.693866 158.354 2.02254C158.354 2.02254 158.907 1.91672 159.589 1.94023C162.319 4.91505 161.754 10.2533 161.754 10.2533Z" fill="#385369"/>
<path d="M150.871 22.082C150.871 22.082 151.93 23.54 154.377 23.493C156.824 23.4342 157.895 22.1643 157.895 22.1643C157.895 22.1643 156.73 24.5865 154.365 24.563C152.001 24.5395 150.871 22.082 150.871 22.082Z" fill="#C78D71"/>
<path d="M161.754 10.2533C161.754 10.2533 161.177 10.1239 160.071 9.98285C158.083 9.73592 154.365 9.47724 149.212 9.9123C148.636 9.95933 148.024 10.0181 147.412 10.0887C147.412 10.0887 147.412 10.0887 147.412 10.0769C147.401 9.9946 147.306 9.489 147.259 8.75999C147.154 6.9022 146.954 3.49233 149.377 1.51696C150.401 0.670369 152.212 -0.0116084 154.201 0.000149791C157.577 0.011908 158.966 0.8585 160.095 2.10487C162.801 5.09144 161.754 10.2533 161.754 10.2533Z" fill="#EDDCCF"/>
<path d="M161.754 11.2533C161.754 11.2533 159.142 12.335 154.542 12.2527C149.942 12.1704 147.412 11.0887 147.412 11.0887C147.412 11.0887 150.071 10.2068 154.718 10.2656C159.354 10.3244 161.754 11.2533 161.754 11.2533Z" fill="#CCBEB2"/>
<path d="M149.354 26.2445C149.354 26.2445 151.024 29.3957 154.389 29.6308C157.754 29.866 158.966 27.3262 159.224 25.7741C159.224 25.7741 154.554 23.7282 149.354 26.2445Z" fill="#EEA987"/>
<path d="M156.354 55.9103H151.871H147.389L143.212 60.0845V72.7951H151.871H160.53V60.0845L156.354 55.9103Z" fill="#DB6321"/>
<path d="M134.412 68.9737C134.412 68.9737 134.883 69.4911 135.436 69.5381C136.4 69.6321 137.624 68.6562 138.506 69.7497C139.389 70.8432 136.777 74.8175 135.965 75.2408C135.142 75.6523 133.518 74.5941 131.941 72.0778C130.377 69.5381 134.412 68.9737 134.412 68.9737Z" fill="#EEA886"/>
<path d="M138.165 69.4204C138.165 69.4204 140.024 70.3141 141.965 71.5839C143.671 72.6892 145.483 74.2648 145.189 74.7234C144.777 75.3583 143.495 73.9356 141.73 72.9596C140.106 72.0543 140.271 72.5246 140.271 72.5246C140.271 72.5246 140.236 72.3835 141.812 73.7357C143.506 75.1819 145.318 76.9692 144.942 77.3807C144.706 77.6394 144.706 77.6982 144.012 77.2867C144.365 77.6159 144.318 77.7687 144.201 77.9451C143.554 78.827 140.73 77.1103 139.612 76.4283C140.471 76.9574 141.048 77.4395 140.318 77.7335C139.495 78.0627 135.612 75.4406 134.13 74.6528C132.506 73.7827 138.165 69.4204 138.165 69.4204Z" fill="#EEA886"/>
<path d="M135.647 68.8796C135.647 68.8796 134.695 70.6198 131.706 72.36C131.706 72.36 125.647 64.9289 122.883 60.6136H131.283C131.283 60.6018 134.989 67.3746 135.647 68.8796Z" fill="#385369"/>
<defs>
<filter id="filter0_d" x="64" y="48" width="192" height="192" filterUnits="userSpaceOnUse" color-interpolation-filters="sRGB">
<feFlood flood-opacity="0" result="BackgroundImageFix"/>
<feColorMatrix in="SourceAlpha" type="matrix" values="0 0 0 0 0 0 0 0 0 0 0 0 0 0 0 0 0 0 127 0"/>
<feOffset dy="4"/>
<feGaussianBlur stdDeviation="2"/>
<feColorMatrix type="matrix" values="0 0 0 0 0 0 0 0 0 0 0 0 0 0 0 0 0 0 0.25 0"/>
<feBlend mode="normal" in2="BackgroundImageFix" result="effect1_dropShadow"/>
<feBlend mode="normal" in="SourceGraphic" in2="effect1_dropShadow" result="shape"/>
</filter>
</defs>
</svg>
